<!--?xml version="1.0" standalone="no"?-->
              <svg id="sw-js-blob-svg" viewBox="0 0 100 100" xmlns="http://www.w3.org/2000/svg" version="1.1">
                    <defs> 
                        <linearGradient id="sw-gradient" x1="0" x2="1" y1="1" y2="0">
                            <stop id="stop1" stop-color="rgba(160.585, 160.585, 160.585, 1)" offset="0%"></stop>
                            <stop id="stop2" stop-color="rgba(15, 15, 15, 1)" offset="100%"></stop>
                        </linearGradient>
                    </defs>
                <path fill="url(#sw-gradient)" d="M17.6,-25.7C23.8,-19.8,30.3,-15.9,34.2,-9.7C38.1,-3.6,39.3,4.8,37.7,13.1C36.1,21.4,31.8,29.6,25,32.4C18.3,35.2,9.1,32.6,-0.3,33C-9.7,33.4,-19.4,36.8,-25.9,33.9C-32.4,31,-35.6,21.8,-36.7,13.1C-37.9,4.5,-37,-3.6,-35.1,-12C-33.2,-20.4,-30.3,-29.1,-24.3,-35C-18.3,-41,-9.1,-44.2,-1.7,-41.9C5.7,-39.5,11.5,-31.6,17.6,-25.7Z" width="100%" height="100%" transform="translate(50 50)" stroke-width="0" style="transition: all 0.3s ease 0s;" stroke="url(#sw-gradient)"></path>
              </svg>